# xmcd
#
# Track frame offsets: 
#        150
#        11953
#        28047
#        43971
#        60400
#        75026
#        91471
#        106058
#        123952
#        139128
#        154563
#        170487
#
# Disc length: 2443 seconds
#
# Revision: 2
# Processed by: cddbd v1.5.2PL0 Copyright (c) Steve Scherf et al.
# Submitted via: ExactAudioCopyFreeDBPlugin 1.0
#
DISCID=8d09890c
DTITLE=Noah Kin - No Matter The Season
DYEAR=2011
DGENRE=Rap
TTITLE0=My Name Is Noah Kin
TTITLE1=Broke
TTITLE2=S.W.A.T. (Spit Without Any Trouble)
TTITLE3=Outer Space
TTITLE4=Nevermore (feat. Ekow)
TTITLE5=Brick By Brick
TTITLE6=No Matter The Season (Let It)
TTITLE7=Connections (feat. Gracias)
TTITLE8=Killed By Radio (feat. Armen Jamz and Matinpoika)
TTITLE9=Perfect Strangers
TTITLE10=Subtitles
TTITLE11=Underground
EXTD=
EXTT0=
EXTT1=
EXTT2=
EXTT3=
EXTT4=
EXTT5=
EXTT6=
EXTT7=
EXTT8=
EXTT9=
EXTT10=
EXTT11=
PLAYORDER=
